<svg width="113" height="30" viewBox="0 0 113 30" fill="none" xmlns="http://www.w3.org/2000/svg">
<path d="M0 5H3.94V13.21H12.25V5H16.196V25.153H12.25V16.77H3.94V25.153H0V5ZM28.678 18.589C28.678 20.276 27.213 21.649 25.414 21.649C23.615 21.649 22.15 20.276 22.15 18.589V9.912H18.414V18.589C18.414 22.209 21.554 25.153 25.414 25.153C29.274 25.153 32.414 22.208 32.414 18.589V9.912H28.678V18.589ZM42.845 10.014C40.991 10.014 39.698 10.518 38.448 11.669V5H34.7V17.359C34.7 21.985 38.267 25.153 42.273 25.153C46.727 25.153 50.63 21.928 50.63 17.583C50.63 13.293 47.031 10.013 42.846 10.013L42.845 10.014ZM42.938 21.9C40.398 21.9 38.455 19.91 38.455 17.583C38.455 15.256 40.398 13.266 42.938 13.266C45.09 13.266 47.034 15.256 47.034 17.583C47.034 19.91 45.09 21.9 42.938 21.9ZM56.925 10.9C56.925 9.132 58.181 8.572 59.555 8.572C60.662 8.572 62.127 9.357 63.082 10.31L65.533 7.62C64.308 6.077 61.828 5.012 59.795 5.012C55.729 5.012 52.8 7.227 52.8 10.9C52.8 17.712 61.738 15.552 61.738 19.366C61.738 20.542 60.513 21.58 59.108 21.58C56.896 21.58 56.178 20.571 55.162 19.506L52.442 22.14C54.176 24.131 56.328 25.14 58.899 25.14C62.755 25.14 65.863 22.898 65.863 19.393C65.863 11.824 56.925 14.179 56.925 10.9ZM75.733 9.816C71.726 9.816 68.16 12.983 68.16 17.61V30H71.908V23.3C73.158 24.45 74.451 24.955 76.305 24.955C80.49 24.955 84.09 21.675 84.09 17.385C84.09 13.04 80.186 9.816 75.733 9.816ZM76.399 21.703C73.859 21.703 71.916 19.711 71.916 17.385C71.916 15.058 73.859 13.068 76.399 13.068C78.551 13.068 80.494 15.058 80.494 17.385C80.494 19.711 78.551 21.703 76.399 21.703ZM111.684 21.9C109.473 21.9 108.844 21.003 108.844 19.63V13.546H112.282V10.463H108.845V6.397L105.05 7.995V20.386C105.05 23.554 107.38 25.153 110.577 25.153C111.056 25.153 111.714 25.123 112.073 25.041L113 21.845C112.582 21.872 112.103 21.9 111.684 21.9Z" fill="#919191"/>
<path d="M100.964 13.775C100.25 12.67 99.246 11.785 97.99 11.117C97.0533 10.6219 96.0332 10.3042 94.981 10.18V6.67C96.078 6.25 96.759 5.324 96.759 4.242C96.759 2.768 95.444 1.574 93.807 1.574C92.168 1.574 90.831 2.768 90.831 4.242C90.831 5.324 91.472 6.251 92.569 6.67V10.183C91.6649 10.2993 90.7828 10.548 89.951 10.921C88.254 9.761 82.689 5.959 79.434 3.738C79.512 3.488 79.571 3.229 79.571 2.957C79.57 1.323 78.1 0 76.285 0C74.47 0 73 1.323 73 2.956C73 4.588 74.47 5.912 76.287 5.912C76.8761 5.91159 77.4557 5.76377 77.973 5.482L78.66 5.95L88.1 12.067C87.6 12.479 87.136 12.947 86.764 13.474C86.011 14.546 85.55 15.726 85.55 17.012V17.281C85.55 18.184 85.741 19.037 86.066 19.838C86.3597 20.5408 86.7735 21.1872 87.289 21.748L84.156 24.573C83.229 24.263 82.186 24.469 81.488 25.1C81.2567 25.3011 81.0708 25.5491 80.9426 25.8275C80.8145 26.106 80.7472 26.4085 80.745 26.715C80.745 27.325 81.009 27.899 81.489 28.33C81.9841 28.7679 82.624 29.0067 83.285 29C83.9462 29.0065 84.5865 28.7678 85.082 28.33C85.3133 28.1289 85.4992 27.8809 85.6273 27.6025C85.7555 27.324 85.8228 27.0215 85.825 26.715C85.825 26.479 85.785 26.249 85.708 26.03L88.946 23.117C89.39 23.393 89.87 23.625 90.386 23.825C91.4584 24.2457 92.6001 24.4618 93.752 24.462H93.977C95.3078 24.4701 96.6226 24.171 97.819 23.588C99.088 22.968 100.081 22.12 100.831 21.038C101.585 19.952 102 18.753 102 17.434V17.368C102 16.07 101.666 14.872 100.964 13.775ZM97.008 19.885C96.129 20.764 95.118 21.305 93.977 21.305H93.789C93.136 21.305 92.499 21.143 91.874 20.848C91.2063 20.5412 90.6285 20.0681 90.196 19.474C89.744 18.898 89.498 18.269 89.498 17.604V17.4C89.498 16.745 89.638 16.123 89.99 15.537C90.3666 14.8964 90.9054 14.3662 91.552 14C92.2052 13.6088 92.9537 13.4057 93.715 13.413H93.789C94.505 13.413 95.183 13.54 95.823 13.835C96.4565 14.1302 97.006 14.5796 97.421 15.142C97.822 15.707 98.061 16.316 98.138 16.979C98.15 17.117 98.156 17.259 98.156 17.393C98.156 18.293 97.773 19.128 97.008 19.885Z" fill="#919191"/>
</svg>
