<svg width="125" height="39" viewBox="0 0 125 39" fill="none" xmlns="http://www.w3.org/2000/svg">
<g clip-path="url(#clip0_3_6)">
<path d="M65.879 9.8C65.8795 10.1335 65.8142 10.4638 65.6868 10.772C65.5593 11.0801 65.3723 11.3601 65.1364 11.5958C64.9005 11.8315 64.6204 12.0183 64.3121 12.1455C64.0038 12.2727 63.6735 12.3378 63.34 12.337C63.0065 12.3378 62.6761 12.2727 62.3678 12.1454C62.0595 12.0182 61.7794 11.8312 61.5436 11.5954C61.3078 11.3596 61.1208 11.0795 60.9936 10.7712C60.8663 10.4629 60.8012 10.1325 60.802 9.799C60.7981 9.46467 60.8611 9.13294 60.9873 8.82332C61.1135 8.51369 61.3003 8.23242 61.5368 7.99605C61.7732 7.75967 62.0546 7.57296 62.3642 7.4469C62.6739 7.32085 63.0057 7.25798 63.34 7.262C64.786 7.301 65.879 8.433 65.879 9.799V9.8ZM55.413 14.914V15.538C55.413 15.538 54.203 13.976 51.626 13.976C47.37 13.976 44.05 17.216 44.05 21.706C44.05 26.156 47.33 29.436 51.626 29.436C54.242 29.436 55.413 27.835 55.413 27.835V28.498C55.413 28.811 55.648 29.044 55.96 29.044H59.123V14.365H55.96C55.8157 14.3686 55.6783 14.4276 55.5765 14.5299C55.4746 14.6321 55.416 14.7697 55.413 14.914ZM55.413 24.321C54.828 25.181 53.656 25.922 52.251 25.922C49.751 25.922 47.838 24.361 47.838 21.706C47.838 19.051 49.752 17.49 52.251 17.49C53.618 17.49 54.867 18.27 55.413 19.09V24.321ZM61.466 14.367H65.215V29.045H61.466V14.367ZM117.464 13.976C114.886 13.976 113.676 15.538 113.676 15.538V7.301H109.927V29.045H113.09C113.234 29.0422 113.371 28.9838 113.473 28.882C113.575 28.7803 113.634 28.643 113.637 28.499V27.835C113.637 27.835 114.847 29.435 117.424 29.435C121.681 29.435 125 26.158 125 21.707C125 17.257 121.681 13.976 117.464 13.976ZM116.839 25.883C115.394 25.883 114.262 25.142 113.676 24.283V19.05C114.262 18.27 115.511 17.45 116.839 17.45C119.338 17.45 121.251 19.011 121.251 21.666C121.251 24.32 119.338 25.882 116.839 25.882V25.883ZM107.975 20.34V29.084H104.225V20.77C104.225 18.35 103.445 17.374 101.337 17.374C100.205 17.374 99.033 17.959 98.29 18.819V29.047H94.542V14.367H97.509C97.822 14.367 98.056 14.641 98.056 14.915V15.539C99.15 14.407 100.594 13.977 102.039 13.977C103.679 13.977 105.046 14.447 106.139 15.383C107.467 16.476 107.975 17.881 107.975 20.341V20.34ZM85.442 13.976C82.866 13.976 81.655 15.538 81.655 15.538V7.301H77.906V29.045H81.069C81.2129 29.0419 81.3502 28.9835 81.4521 28.8818C81.554 28.78 81.6127 28.6429 81.616 28.499V27.835C81.616 27.835 82.826 29.435 85.403 29.435C89.66 29.435 92.979 26.158 92.979 21.707C93.019 17.256 89.699 13.976 85.442 13.976ZM84.817 25.883C83.373 25.883 82.241 25.142 81.655 24.283V19.05C82.241 18.27 83.49 17.45 84.817 17.45C87.317 17.45 89.23 19.011 89.23 21.666C89.23 24.32 87.317 25.882 84.817 25.882V25.883ZM74.665 13.976C75.797 13.976 76.383 14.172 76.383 14.172V17.646C76.383 17.646 73.259 16.591 71.307 18.817V29.084H67.557V14.367H70.721C71.033 14.367 71.267 14.64 71.267 14.913V15.538C71.971 14.718 73.494 13.976 74.665 13.976ZM35.733 27.718C35.538 27.25 35.343 26.742 35.147 26.312C34.834 25.61 34.522 24.946 34.249 24.322L34.21 24.282C31.4757 18.3321 28.5982 12.449 25.58 6.638L25.463 6.403C25.143 5.795 24.83 5.183 24.526 4.568C24.136 3.865 23.746 3.124 23.12 2.421C21.87 0.859 20.074 0 18.161 0C16.208 0 14.451 0.86 13.163 2.342C12.577 3.045 12.147 3.786 11.757 4.49C11.4524 5.10544 11.1404 5.71715 10.821 6.325L10.703 6.559C7.696 12.415 4.768 18.349 2.073 24.204L2.033 24.282C1.761 24.907 1.448 25.571 1.135 26.272C0.939997 26.702 0.744997 27.171 0.549997 27.678C0.0419972 29.122 -0.114003 30.488 0.0819972 31.895C0.291236 33.3234 0.869534 34.6724 1.75975 35.8089C2.64997 36.9453 3.82129 37.8298 5.158 38.375C6.174 38.805 7.228 39 8.321 39C8.634 39 9.024 38.961 9.337 38.922C10.625 38.766 11.953 38.337 13.242 37.595C14.842 36.697 16.366 35.409 18.084 33.535C19.802 35.409 21.364 36.697 22.926 37.595C24.216 38.337 25.542 38.765 26.831 38.922C27.143 38.962 27.534 39 27.847 39C28.94 39 30.033 38.805 31.009 38.375C33.743 37.281 35.656 34.784 36.086 31.895C36.396 30.529 36.24 29.163 35.733 27.718ZM18.122 29.748C16.012 27.093 14.646 24.595 14.178 22.488C13.983 21.589 13.943 20.808 14.061 20.106C14.1378 19.5179 14.3519 18.9561 14.686 18.466C15.428 17.412 16.677 16.748 18.122 16.748C19.567 16.748 20.856 17.373 21.559 18.466C21.871 18.934 22.106 19.481 22.184 20.106C22.301 20.809 22.262 21.628 22.067 22.487C21.597 24.556 20.23 27.055 18.122 29.747V29.748ZM33.702 31.583C33.5613 32.5888 33.1592 33.54 32.5357 34.3416C31.9122 35.1432 31.0892 35.7671 30.149 36.151C29.212 36.541 28.196 36.658 27.181 36.541C26.205 36.423 25.228 36.111 24.214 35.526C22.808 34.744 21.402 33.535 19.762 31.739C22.339 28.577 23.901 25.688 24.487 23.112C24.7414 22.0246 24.8073 20.9017 24.682 19.792C24.5374 18.8386 24.1769 17.9308 23.628 17.138C22.416 15.381 20.386 14.367 18.121 14.367C15.857 14.367 13.826 15.421 12.616 17.138C12.0668 17.9311 11.7059 18.8392 11.561 19.793C11.396 20.9009 11.4624 22.031 11.756 23.112C12.342 25.688 13.943 28.616 16.481 31.778C14.88 33.574 13.435 34.784 12.029 35.565C11.014 36.151 10.038 36.463 9.062 36.58C8.05568 36.6923 7.03713 36.5585 6.094 36.19C5.15379 35.8061 4.33081 35.1822 3.70732 34.3806C3.08382 33.579 2.68165 32.6278 2.541 31.622C2.4119 30.5935 2.53229 29.5491 2.892 28.577C3.009 28.187 3.205 27.797 3.4 27.327C3.673 26.703 3.985 26.039 4.298 25.376L4.338 25.298C7.06696 19.3904 9.93105 13.5462 12.928 7.77L13.045 7.535C13.358 6.95 13.67 6.325 13.982 5.74C14.295 5.115 14.646 4.529 15.076 4.021C15.896 3.085 16.989 2.577 18.2 2.577C19.41 2.577 20.504 3.085 21.324 4.021C21.754 4.531 22.104 5.116 22.417 5.74C22.73 6.325 23.043 6.95 23.354 7.535L23.472 7.77C26.4331 13.5713 29.2843 19.428 32.024 25.337V25.376C32.336 26.002 32.61 26.704 32.922 27.329C33.117 27.797 33.312 28.187 33.43 28.577C33.741 29.591 33.858 30.568 33.702 31.583Z" fill="#919191"/>
</g>
<defs>
<clipPath id="clip0_3_6">
<rect width="125" height="39" fill="white"/>
</clipPath>
</defs>
</svg>
