<svg width="124" height="24" viewBox="0 0 124 24" fill="none" xmlns="http://www.w3.org/2000/svg">
<path d="M63.849 11.694C62.826 11.694 62.089 12.02 61.342 12.351V19.858C62.058 19.924 62.468 19.924 63.147 19.924C65.601 19.924 65.937 18.832 65.937 17.308V13.723C65.937 12.598 65.553 11.694 63.849 11.694ZM47.554 11.284C45.852 11.284 45.464 12.192 45.464 13.317V13.948H49.643V13.317C49.643 12.192 49.254 11.284 47.554 11.284ZM15.988 19.097C15.988 19.987 16.42 20.449 17.374 20.449C18.396 20.449 19.002 20.125 19.749 19.792V18.012H17.512C16.453 18.012 15.988 18.202 15.988 19.097ZM79.7 11.694C77.995 11.694 77.404 12.598 77.404 13.724V17.83C77.404 18.959 77.994 19.865 79.7 19.865C81.4 19.865 81.996 18.959 81.996 17.83V13.723C81.996 12.598 81.4 11.694 79.7 11.694ZM7.632 23.702H2.619V11.917H0.114998V7.857H2.62V5.417C2.62 2.104 4.033 0.134003 8.05 0.134003H11.395V4.196H9.305C7.74 4.196 7.637 4.764 7.637 5.823L7.631 7.856H11.418L10.975 11.916H7.632V23.702ZM24.762 23.733H20.585L20.405 22.707C18.9528 23.4972 17.3243 23.9073 15.671 23.899C12.608 23.899 10.977 21.911 10.977 19.162C10.977 15.918 12.88 14.76 16.284 14.76H19.749V14.059C19.749 12.403 19.553 11.917 16.932 11.917H12.646L13.065 7.857H17.75C23.501 7.857 24.762 9.621 24.762 14.092V23.733ZM38.968 12.215C36.368 11.782 35.622 11.687 34.371 11.687C32.125 11.687 31.446 12.168 31.446 14.022V17.528C31.446 19.381 32.125 19.865 34.371 19.865C35.622 19.865 36.369 19.768 38.968 19.333V23.294C36.691 23.79 35.208 23.921 33.954 23.921C28.573 23.921 26.434 21.171 26.434 17.201V14.356C26.434 10.381 28.573 7.627 33.954 7.627C35.208 7.627 36.691 7.757 38.968 8.256V12.215ZM54.654 17.2H45.463V17.528C45.463 19.381 46.143 19.865 48.388 19.865C50.408 19.865 51.64 19.768 54.235 19.333V23.294C51.732 23.79 50.428 23.921 47.973 23.921C42.591 23.921 40.451 21.171 40.451 17.201V13.948C40.451 10.473 42.038 7.628 47.553 7.628C53.068 7.628 54.654 10.44 54.654 13.948V17.2ZM70.948 17.276C70.948 21.114 69.819 23.913 62.978 23.913C60.507 23.913 59.058 23.703 56.331 23.295V1.355L61.341 0.542003V8.217C62.425 7.827 63.826 7.627 65.101 7.627C70.113 7.627 70.948 9.81 70.948 13.317V17.276ZM87.011 17.359C87.011 20.67 85.604 23.882 79.716 23.882C73.825 23.882 72.391 20.67 72.391 17.359V14.162C72.391 10.849 73.825 7.637 79.716 7.637C85.604 7.637 87.011 10.849 87.011 14.162V17.359ZM103.063 17.359C103.063 20.67 101.653 23.882 95.767 23.882C89.876 23.882 88.442 20.67 88.442 17.359V14.162C88.442 10.849 89.876 7.637 95.767 7.637C101.654 7.637 103.063 10.849 103.063 14.162V17.359ZM119.535 23.702H114.104L109.51 16.254V23.702H104.498V1.354L109.51 0.542003V14.929L114.104 7.856H119.535L114.521 15.575L119.535 23.702ZM95.75 11.694C94.047 11.694 93.456 12.598 93.456 13.724V17.83C93.456 18.959 94.047 19.865 95.75 19.865C97.45 19.865 98.051 18.959 98.051 17.83V13.723C98.051 12.598 97.45 11.694 95.75 11.694ZM122.396 20.923C123.24 20.923 123.912 21.591 123.912 22.426C123.912 23.274 123.24 23.936 122.39 23.936C122.19 23.9388 121.991 23.9018 121.806 23.8272C121.62 23.7525 121.451 23.6418 121.308 23.5013C121.166 23.3608 121.053 23.1934 120.975 23.0088C120.898 22.8242 120.858 22.6261 120.858 22.426C120.858 21.591 121.544 20.923 122.39 20.923H122.396ZM122.39 21.157C121.71 21.157 121.153 21.725 121.153 22.427C121.153 23.14 121.71 23.701 122.396 23.701C123.083 23.708 123.631 23.141 123.631 22.433C123.631 21.725 123.083 21.157 122.396 21.157H122.39ZM122.102 23.301H121.827V21.624C121.971 21.604 122.109 21.584 122.315 21.584C122.576 21.584 122.747 21.638 122.852 21.711C122.953 21.785 123.008 21.898 123.008 22.058C123.008 22.279 122.858 22.412 122.672 22.466V22.479C122.823 22.506 122.926 22.639 122.961 22.885C123.001 23.146 123.043 23.246 123.069 23.301H122.781C122.741 23.246 122.699 23.093 122.664 22.872C122.624 22.659 122.514 22.579 122.294 22.579H122.102V23.301ZM122.102 22.373H122.302C122.527 22.373 122.719 22.292 122.719 22.084C122.719 21.937 122.609 21.791 122.301 21.791C122.211 21.791 122.149 21.798 122.101 21.804V22.373H122.102Z" fill="#919191"/>
</svg>
