<svg width="83" height="30" viewBox="0 0 83 30" fill="none" xmlns="http://www.w3.org/2000/svg">
<g clip-path="url(#clip0_3_4)">
<path d="M12.186 0C12.386 0.093 12.512 0.285 12.672 0.437C12.932 0.662 13.124 0.96 13.377 1.192C13.689 1.49 13.889 1.867 14.148 2.205C14.6 2.887 14.999 3.615 15.205 4.41C15.418 4.952 15.451 5.542 15.438 6.124C15.451 6.654 15.305 7.177 15.066 7.654C14.653 8.375 13.909 8.859 13.131 9.117C12.16 9.349 11.089 9.389 10.151 8.978C9.813 8.793 9.427 8.667 9.154 8.375C8.523 7.859 8.157 7.018 8.277 6.204C8.463 4.754 9.334 3.509 10.265 2.437C10.351 2.595 10.278 2.781 10.338 2.947C10.418 3.297 10.544 3.668 10.81 3.92C11.136 3.622 11.482 3.324 11.76 2.98C12.014 2.609 12.22 2.198 12.306 1.761C12.326 1.205 12.379 0.622 12.166 0.093L12.186 0V0ZM0.00499959 6.614C1.561 6.628 3.123 6.601 4.679 6.628C4.679 8.17 4.693 9.713 4.673 11.256C5.777 11.276 6.88 11.262 7.991 11.262C8.004 11.382 8.011 11.501 8.011 11.62C7.997 12.891 8.017 14.156 7.997 15.427C6.887 15.44 5.783 15.427 4.673 15.433C4.693 17.718 4.666 19.995 4.686 22.279C4.726 22.479 4.753 22.677 4.746 22.882C4.726 23.067 4.839 23.22 4.879 23.392C4.965 23.789 5.185 24.147 5.437 24.458C5.81 24.828 6.288 25.087 6.8 25.199C7.266 25.272 7.731 25.312 8.204 25.279C8.23 25.359 8.244 25.438 8.244 25.524C8.23735 26.7133 8.23735 27.9027 8.244 29.092C8.244 29.258 8.21 29.423 8.184 29.582C7.512 29.582 6.84 29.629 6.169 29.582C5.769 29.496 5.344 29.536 4.959 29.364C3.889 29.112 2.864 28.583 2.099 27.781C0.977 26.702 0.372 25.18 0.126 23.67C0.0589996 23.504 0.0989996 23.312 0.0719996 23.134C-0.0210004 22.769 0.0189996 22.385 0.00599959 22.014C-0.00100041 16.8807 -0.00100041 11.7473 0.00599959 6.614H0.00499959ZM22.719 10.904C22.998 10.832 23.297 10.884 23.576 10.825C24.162 10.752 24.74 10.845 25.319 10.865C25.724 10.858 26.116 10.978 26.515 11.057C27.998 11.415 29.401 12.202 30.419 13.354C30.599 13.652 30.871 13.871 31.043 14.175C31.476 14.857 31.762 15.619 32.008 16.387C32.161 16.95 32.24 17.532 32.314 18.108C32.347 19.386 32.327 20.671 32.334 21.948C32.327 24.498 32.34 27.047 32.327 29.596C30.771 29.576 29.222 29.589 27.672 29.582C27.6505 29.5688 27.6304 29.5534 27.612 29.536C27.606 25.967 27.612 22.399 27.612 18.836C27.619 18.4 27.539 17.976 27.446 17.559C27.2886 17.134 27.0618 16.738 26.775 16.387C26.602 16.182 26.363 16.049 26.17 15.87C25.87 15.672 25.518 15.58 25.179 15.486C24.999 15.473 24.819 15.486 24.654 15.426C23.942 15.38 23.217 15.44 22.552 15.712C22.067 15.943 21.615 16.261 21.296 16.705C20.77 17.327 20.598 18.175 20.611 18.969C20.611 22.505 20.618 26.047 20.611 29.582C19.041 29.596 17.472 29.576 15.903 29.596C15.877 26.186 15.903 22.769 15.89 19.36C15.897 18.923 15.883 18.486 15.917 18.049C16.003 17.83 15.943 17.592 16.01 17.379C16.13 16.572 16.435 15.804 16.774 15.069C17.107 14.427 17.506 13.811 18.024 13.301C18.43 12.891 18.849 12.461 19.361 12.176C20.351 11.487 21.521 11.07 22.719 10.905V10.904ZM78.439 10.865C79.018 10.852 79.589 10.739 80.169 10.832C80.481 10.872 80.799 10.865 81.112 10.878C81.172 11.454 81.126 12.037 81.139 12.613V14.93C81.139 15.076 81.159 15.228 81.099 15.367C80.946 15.255 80.74 15.294 80.567 15.248C79.862 15.188 79.137 15.222 78.473 15.486C77.6694 15.7605 77.0009 16.3313 76.604 17.082C76.491 17.222 76.491 17.42 76.364 17.552C76.159 18.294 76.145 19.068 76.159 19.83C76.152 23.087 76.179 26.338 76.145 29.596C74.595 29.576 73.04 29.596 71.485 29.582C71.471 29.569 71.451 29.542 71.438 29.529V18.903C71.418 18.459 71.518 18.029 71.511 17.592C71.617 17.38 71.591 17.135 71.657 16.917C71.989 15.241 72.874 13.659 74.217 12.58C74.477 12.289 74.849 12.15 75.155 11.918C76.145 11.315 77.295 11.024 78.439 10.865ZM9.52 11.255C11.09 11.282 12.658 11.249 14.228 11.269C14.228 17.327 14.221 23.379 14.228 29.43C14.228 29.49 14.228 29.609 14.135 29.589H9.533C9.493 28.589 9.527 27.583 9.513 26.583C9.52 21.478 9.513 16.367 9.52 11.256V11.255ZM58.758 23.545C59.157 23.392 59.542 23.193 59.948 23.055C60.533 22.829 61.105 22.558 61.69 22.333C62.9 21.776 64.15 21.313 65.374 20.79C65.666 20.63 65.999 20.558 66.284 20.386C66.61 20.26 66.936 20.148 67.255 20.002C67.535 19.836 67.854 19.77 68.14 19.625C68.519 19.472 68.884 19.3 69.27 19.161C69.662 18.943 70.101 18.837 70.493 18.625C70.6 18.552 70.773 18.572 70.839 18.446C70.726 18.287 70.786 18.088 70.726 17.916C70.64 17.606 70.553 17.301 70.48 16.996C70.1884 16.072 69.7435 15.2036 69.164 14.427C68.452 13.401 67.474 12.573 66.391 11.964C65.679 11.534 64.881 11.289 64.084 11.077C63.592 11.017 63.119 10.845 62.621 10.852C62.169 10.792 61.703 10.766 61.258 10.845C60.466 10.858 59.708 11.05 58.958 11.269C57.648 11.726 56.404 12.421 55.4 13.381C55.1 13.659 54.854 13.984 54.569 14.268C54.123 14.838 53.717 15.44 53.412 16.089C52.979 17.062 52.567 18.082 52.521 19.161C52.374 19.678 52.421 20.221 52.414 20.751C52.401 21.088 52.454 21.419 52.521 21.743C52.501 22.087 52.634 22.405 52.681 22.736C52.793 23.438 53.106 24.087 53.391 24.736C54.176 26.338 55.413 27.729 56.962 28.636C57.98 29.258 59.11 29.702 60.294 29.867C61.258 30.019 62.248 30.046 63.219 29.92C63.552 29.947 63.871 29.8 64.203 29.781C65.62 29.45 67.009 28.854 68.08 27.854C68.399 27.603 68.698 27.304 68.95 26.987C69.376 26.557 69.682 26.034 69.988 25.517C70.2831 24.9649 70.5194 24.3834 70.693 23.782C70.6 23.742 70.493 23.756 70.401 23.756C68.845 23.763 67.295 23.749 65.739 23.756C65.593 23.756 65.593 23.955 65.5 24.034C65.234 24.418 64.895 24.742 64.536 25.047C64.017 25.417 63.406 25.617 62.8 25.795C62.64 25.815 62.488 25.808 62.342 25.868C61.969 25.895 61.59 25.881 61.212 25.875C60.7912 25.8002 60.3757 25.6983 59.968 25.57C59.343 25.252 58.731 24.888 58.259 24.372C58.139 24.226 57.947 24.114 57.907 23.922C58.013 23.875 58.113 23.802 58.232 23.782C58.425 23.749 58.572 23.597 58.758 23.544V23.545ZM56.843 20.194C56.75 19.962 56.836 19.691 56.823 19.446C56.929 19.108 56.963 18.751 57.089 18.413C57.408 17.665 57.8 16.93 58.372 16.34C58.638 16.122 58.864 15.857 59.17 15.692C59.396 15.572 59.615 15.44 59.848 15.334C60.28 15.208 60.699 15.01 61.151 15.01C61.564 14.91 61.989 14.963 62.408 14.97C63.505 15.122 64.609 15.592 65.32 16.46C65.394 16.632 65.148 16.645 65.048 16.711C64.616 16.95 64.13 17.069 63.698 17.314C63.505 17.347 63.338 17.466 63.153 17.526C61.776 18.122 60.373 18.645 59.01 19.267C58.2769 19.5503 57.5542 19.8595 56.843 20.194ZM51.889 3.164C50.433 3.152 48.977 3.164 47.52 3.158C47.414 3.171 47.288 3.125 47.201 3.205C47.215 6.316 47.201 9.435 47.208 12.547C47.201 12.659 47.228 12.772 47.181 12.877C47.048 12.857 46.981 12.732 46.882 12.659C46.211 12.083 45.459 11.593 44.622 11.309C44.056 11.09 43.464 10.978 42.866 10.872C42.188 10.858 41.503 10.838 40.818 10.878C40.745 10.898 40.678 10.918 40.605 10.925C39.083 11.136 37.66 11.845 36.489 12.818C35.838 13.428 35.186 14.063 34.727 14.831C34.189 15.592 33.843 16.466 33.511 17.327C33.358 17.87 33.205 18.407 33.138 18.962C33.012 19.816 33.065 20.69 33.078 21.552C33.112 21.776 33.185 21.988 33.191 22.213C33.3127 22.9443 33.5226 23.6582 33.816 24.339C34.062 24.994 34.461 25.59 34.827 26.186C35.087 26.516 35.339 26.861 35.651 27.152C36.117 27.609 36.576 28.106 37.161 28.424C37.852 28.947 38.671 29.258 39.468 29.563C39.761 29.615 40.033 29.781 40.332 29.788C40.585 29.808 40.818 29.927 41.071 29.913C41.204 29.9 41.323 29.993 41.463 29.98C42.108 30 42.759 30 43.404 29.98C43.511 29.98 43.617 29.933 43.73 29.927C44.176 29.933 44.588 29.761 45.02 29.701C45.585 29.496 46.19 29.364 46.716 29.059C47.494 28.702 48.198 28.199 48.83 27.629C49.6256 26.931 50.2783 26.0854 50.752 25.139C50.958 24.723 51.191 24.319 51.324 23.869C51.576 23.246 51.689 22.584 51.776 21.929C51.922 21.352 51.876 20.75 51.889 20.154V3.164ZM47.161 21.094C47.121 21.796 46.856 22.464 46.543 23.094C46.018 24.08 45.133 24.835 44.129 25.312C43.976 25.392 43.777 25.385 43.671 25.53C43.484 25.53 43.298 25.537 43.119 25.603C42.547 25.617 41.955 25.669 41.396 25.511C41.157 25.398 40.891 25.351 40.652 25.226C40.352 25.06 40.013 24.948 39.767 24.696C39.302 24.372 38.943 23.928 38.617 23.471C38.357 23.028 38.098 22.571 37.979 22.068C37.846 21.803 37.859 21.505 37.786 21.227C37.766 20.518 37.726 19.79 37.892 19.101C37.966 18.883 38.012 18.651 38.092 18.433C38.285 18.082 38.404 17.691 38.657 17.373C38.79 17.095 39.023 16.89 39.209 16.652C39.708 16.082 40.393 15.718 41.084 15.433C41.344 15.374 41.596 15.242 41.869 15.242C42.421 15.102 42.992 15.215 43.538 15.314C44.256 15.573 44.968 15.93 45.526 16.46C45.732 16.652 45.885 16.89 46.091 17.082C46.9463 18.2339 47.329 19.6691 47.161 21.094ZM78.4 27.265H80.143C80.149 27.3973 80.149 27.5297 80.143 27.662C79.943 27.689 79.743 27.656 79.551 27.682C79.524 28.278 79.551 28.867 79.538 29.463C79.3609 29.4511 79.1833 29.4491 79.006 29.457C78.986 28.987 78.992 28.51 78.999 28.04C78.999 27.914 79.026 27.768 78.912 27.682C78.74 27.656 78.567 27.689 78.394 27.662C78.386 27.5297 78.388 27.397 78.4 27.265ZM80.462 27.272C80.708 27.265 80.954 27.252 81.2 27.285C81.187 27.477 81.346 27.609 81.393 27.788C81.459 28.013 81.559 28.225 81.625 28.45C81.679 28.55 81.772 28.636 81.738 28.761C81.871 28.245 82.078 27.755 82.284 27.271C82.5209 27.261 82.7581 27.261 82.995 27.271C83.008 27.98 82.995 28.701 82.995 29.411C82.8336 29.4242 82.6714 29.4242 82.51 29.411C82.516 28.914 82.51 28.417 82.523 27.927C82.463 27.98 82.403 28.027 82.357 28.093C82.27 28.543 82.037 28.953 81.925 29.403C81.792 29.423 81.665 29.423 81.532 29.41C81.492 29.159 81.312 28.953 81.312 28.695C81.133 28.477 81.127 28.165 80.987 27.921C80.894 28.099 80.967 28.311 80.947 28.503C80.921 28.814 80.98 29.133 80.921 29.443C80.761 29.443 80.581 29.496 80.455 29.383C80.475 28.682 80.455 27.98 80.462 27.272Z" fill="#919191"/>
</g>
<defs>
<clipPath id="clip0_3_4">
<rect width="83" height="30" fill="white"/>
</clipPath>
</defs>
</svg>
